/* XPM */
static char *gromit_mpx[] = {
/* columns rows colors chars-per-pixel */
"32 32 6 1 ",
"  c #FF0000",
". c #FF7522",
"X c #3BFF49",
"o c #FF8D29",
"O c #FF8F2A",
"+ c None",
/* pixels */
"+++++++++++++++++       ++++++++",
"++++++++++++++      ++   +++++++",
"+++++++++++++    +++++++ +++++++",
"++++++++++++    ++++++++++++++++",
"++++++++++    ++++++++++++++++++",
"+++++++++    +++++++++++++++++++",
"++++++++   +++++++++++++++++++++",
"+++++++   ++++++++++++++++++++++",
"++++++   +++++++++++++++++++++++",
"++++++   +++++++++++++++++++++++",
"++++    ++++++++++++++++++++++++",
"++++   +++++++++++++++++++++++++",
"+++    +++++++++++++++++++++++++",
"+++   ++++++++++++++++++++++++++",
"++   +++++++++++++++++++++++++++",
"++   +++++++++++++++   +++++++++",
"+   ++++++++++++++       +++++++",
"+   +++++++++++          +++++++",
"+   +++++++++            +++++++",
"   +++++++++       +++   +++++++",
"   ++++++++         ++   +++++++",
"   ++++++++    ++++ ++   +++++++",
"   ++++++++++++++++ +   ++++++++",
"   ++XXX+++XXX++XXXXXX XX++++XX+",
"   ++XXX+++XXX++XXO +XX XX++XX++",
"   ++XXXX+XXXX++XX   XX XX++XX++",
"   ++XX+X+X+XX++XX.+OXX++XXXX+++",
"    +XX+XXX+XX  XXXXXX+++XXXX+++",
"+   +XX++X++XX  XX++++++XX++XX++",
"+    XX +   XX  XX++++++XX++XX++",
"++   XX     XX +XX+++++XX++++XX+",
"+++         ++++++++++++++++++++"
};
