/* XPM */
static char * gromit_mpx_xpm[] = {
"32 32 50 1",
" 	c None",
".	c #440000",
"+	c #9E0000",
"@	c #FC0000",
"#	c #C50000",
"$	c #1B0000",
"%	c #890000",
"&	c #AA0000",
"*	c #EE0000",
"=	c #BA0000",
"-	c #520000",
";	c #5B0000",
">	c #490000",
",	c #650000",
"'	c #3B0000",
")	c #E50000",
"!	c #590000",
"~	c #F10000",
"{	c #B30000",
"]	c #120000",
"^	c #390000",
"/	c #2D0000",
"(	c #750000",
"_	c #D70000",
":	c #200000",
"<	c #240000",
"[	c #DA0000",
"}	c #700000",
"|	c #290000",
"1	c #300000",
"2	c #EA0000",
"3	c #4E0000",
"4	c #F80000",
"5	c #CA0000",
"6	c #870000",
"7	c #CE0000",
"8	c #6E0000",
"9	c #190000",
"0	c #BE0000",
"a	c #140000",
"b	c #420000",
"c	c #8C0000",
"d	c #DC0000",
"e	c #0D0000",
"f	c #970000",
"g	c #35E642",
"h	c #A50000",
"i	c #090000",
"j	c #D10000",
"k	c #930000",
"                .+@@@@@#$       ",
"              %&*@@=--;@#       ",
"            >&@@=,     ')       ",
"           !~@@{]       ^       ",
"         /(@@_:                 ",
"        <[@@}|                  ",
"       1*@~-                    ",
"      |[@@;                     ",
"      2@*3                      ",
"     ,4@5                       ",
"    6@@7]                       ",
"    ~@@8                        ",
"  90@@%                         ",
"  3@@@a                         ",
"  4@2.                          ",
" 8@@=              .&&&8        ",
" &@@]           b-_@@@@@c       ",
"^d@@e         9&*@@@@@@@@       ",
"-@@,        >&@@@@4&&&2@@       ",
"5@@,       -~@@@@@*   {@@       ",
"@@{       1@@@@[&&2f ,@@@       ",
"@@{       1@@@(1  -f ;@@@       ",
"@@{               a@>f@@-       ",
"@@{  ggg   ggg  gggggg@gg    gg ",
"@@{  ggg   ggg  gg0f>gghgg  gg  ",
"@@{  gggg gggg  ggd1=gghgg  gg  ",
"@@@, gg g g gg |gg2 =gg} gggg   ",
"@@@7igg ggg gg%jgggggg-  gggg   ",
"^d@@.gg  g |gg@@gg      gg  gg  ",
" &@@2gg&^&&_gg@@gg      gg  gg  ",
"  0@@gg@@@@@ggk gg     gg    gg ",
"  90@@@@@@@@}|                  "};
