/* Created with The GIMP */
#define erase_cursor_width 31
#define erase_cursor_height 31
#define erase_cursor_x_hot 14
#define erase_cursor_y_hot 14
static unsigned char erase_cursor_bits[] = {
   0x00, 0x00, 0x00, 0x00, 0x00, 0xf8, 0x03, 0x00, 0x00, 0x07, 0x1c, 0x00,
   0xc0, 0x00, 0x60, 0x00, 0x20, 0x00, 0x80, 0x00, 0x10, 0x00, 0x00, 0x01,
   0x08, 0x00, 0x00, 0x02, 0x08, 0x00, 0x00, 0x02, 0x04, 0x00, 0x00, 0x04,
   0x04, 0x00, 0x00, 0x04, 0x04, 0x00, 0x00, 0x04, 0x02, 0x00, 0x00, 0x08,
   0x02, 0x00, 0x00, 0x08, 0x02, 0x00, 0x00, 0x08, 0x02, 0x00, 0x00, 0x08,
   0x02, 0x00, 0x00, 0x08, 0x02, 0x00, 0x00, 0x08, 0x02, 0x00, 0x00, 0x08,
   0x04, 0x00, 0x00, 0x04, 0x04, 0x00, 0x00, 0x04, 0x04, 0x00, 0x00, 0x04,
   0x08, 0x00, 0x00, 0x02, 0x08, 0x00, 0x00, 0x02, 0x10, 0x00, 0x00, 0x01,
   0x20, 0x00, 0x80, 0x00, 0xc0, 0x00, 0x60, 0x00, 0x00, 0x07, 0x1c, 0x00,
   0x00, 0xf8, 0x03, 0x00, 0x00, 0x00, 0x00, 0x00, 0x00, 0x00, 0x00, 0x00,
   0x00, 0x00, 0x00, 0x00 };
