/* Created with The GIMP */
#define erase_cursor_mask_width 31
#define erase_cursor_mask_height 31
#define erase_cursor_mask_x_hot 14
#define erase_cursor_mask_y_hot 14
static unsigned char erase_cursor_mask_bits[] = {
   0x00, 0xf8, 0x03, 0x00, 0x00, 0xff, 0x1f, 0x00, 0xc0, 0x07, 0x7c, 0x00,
   0xe0, 0x00, 0xe0, 0x00, 0x30, 0x00, 0x80, 0x01, 0x18, 0x00, 0x00, 0x03,
   0x0c, 0x00, 0x00, 0x06, 0x0c, 0x00, 0x00, 0x06, 0x06, 0x00, 0x00, 0x0c,
   0x06, 0x00, 0x00, 0x0c, 0x06, 0x00, 0x00, 0x0c, 0x03, 0x00, 0x00, 0x18,
   0x03, 0x00, 0x00, 0x18, 0x03, 0x00, 0x00, 0x18, 0x03, 0x00, 0x00, 0x18,
   0x03, 0x00, 0x00, 0x18, 0x03, 0x00, 0x00, 0x18, 0x03, 0x00, 0x00, 0x18,
   0x06, 0x00, 0x00, 0x0c, 0x06, 0x00, 0x00, 0x0c, 0x06, 0x00, 0x00, 0x0c,
   0x0c, 0x00, 0x00, 0x06, 0x0c, 0x00, 0x00, 0x06, 0x18, 0x00, 0x00, 0x03,
   0x30, 0x00, 0x80, 0x01, 0xe0, 0x00, 0xe0, 0x00, 0xc0, 0x07, 0x7c, 0x00,
   0x00, 0xff, 0x1f, 0x00, 0x00, 0xf8, 0x03, 0x00, 0x00, 0x00, 0x00, 0x00,
   0x00, 0x00, 0x00, 0x00 };
