/* XPM */
#define paint_cursor_x_hot 14
#define paint_cursor_y_hot 14
const char * paint_cursor_xpm[] = {
"31 31 3 1",
" 	c None",
".	c #FFFFFF",
"+	c #000000",
"              .                ",
"              .+               ",
"              .+               ",
"              .+               ",
"              .+               ",
"              .+               ",
"              .+               ",
"              .+               ",
"              .+               ",
"               +               ",
"                               ",
"                               ",
"                               ",
"                               ",
".........           .........  ",
"  ++++++++           +++++++++ ",
"                               ",
"                               ",
"                               ",
"                               ",
"                               ",
"              .                ",
"              .+               ",
"              .+               ",
"              .+               ",
"              .+               ",
"              .+               ",
"              .+               ",
"              .+               ",
"               +               ",
"                               "};
