/* XPM */
#define paint_cursor_x_hot 5
#define paint_cursor_y_hot 2
const char * paint_cursor_xpm[] = {
"34 33 5 1",
" 	c None",
".	c #FD0000",
"+	c #FE0000",
"@	c #FF0000",
"#	c #FD0101",
"                                  ",
"                                  ",
"     .+                           ",
"      ....                        ",
"      .....+                      ",
"      +.......                    ",
"      .........+                  ",
"       ............               ",
"       .............              ",
"       +.............             ",
"       +...............           ",
"        ................          ",
"        .................+        ",
"        ..................+       ",
"        ...................+      ",
"         ....................     ",
"         .....................    ",
"          .....................@  ",
"          .....................+. ",
"          ....................... ",
"           ...............+..     ",
"            ..........++          ",
"            #.........            ",
"            #........+            ",
"             ........             ",
"              ......+             ",
"              ......              ",
"               .....              ",
"               +....              ",
"                ...               ",
"                 .+               ",
"                 +                ",
"                                  "};
